<mxfile host="app.diagrams.net" modified="2023-10-01T23:25:33.645Z" agent="Mozilla/5.0 (Windows NT 10.0; Win64; x64) AppleWebKit/537.36 (KHTML, like Gecko) Chrome/117.0.0.0 Safari/537.36 Edg/117.0.2045.47" etag="RRW39_gIgi2I2HRigb2a" version="21.8.2" type="github">
  <diagram name="Page-1" id="2YBvvXClWsGukQMizWep">
    <mxGraphModel dx="986" dy="459" grid="1" gridSize="10" guides="1" tooltips="1" connect="1" arrows="1" fold="1" page="1" pageScale="1" pageWidth="850" pageHeight="1100" math="0" shadow="0">
      <root>
        <mxCell id="0" />
        <mxCell id="1" parent="0" />
        <mxCell id="aM9ryv3xv72pqoxQDRHE-1" value="Login page" style="shape=umlLifeline;perimeter=lifelinePerimeter;whiteSpace=wrap;html=1;container=0;dropTarget=0;collapsible=0;recursiveResize=0;outlineConnect=0;portConstraint=eastwest;newEdgeStyle={&quot;edgeStyle&quot;:&quot;elbowEdgeStyle&quot;,&quot;elbow&quot;:&quot;vertical&quot;,&quot;curved&quot;:0,&quot;rounded&quot;:0};" parent="1" vertex="1">
          <mxGeometry x="280" y="40" width="100" height="300" as="geometry" />
        </mxCell>
        <mxCell id="aM9ryv3xv72pqoxQDRHE-2" value="" style="html=1;points=[];perimeter=orthogonalPerimeter;outlineConnect=0;targetShapes=umlLifeline;portConstraint=eastwest;newEdgeStyle={&quot;edgeStyle&quot;:&quot;elbowEdgeStyle&quot;,&quot;elbow&quot;:&quot;vertical&quot;,&quot;curved&quot;:0,&quot;rounded&quot;:0};" parent="aM9ryv3xv72pqoxQDRHE-1" vertex="1">
          <mxGeometry x="45" y="70" width="10" height="190" as="geometry" />
        </mxCell>
        <mxCell id="aM9ryv3xv72pqoxQDRHE-5" value="Login Authenticator" style="shape=umlLifeline;perimeter=lifelinePerimeter;whiteSpace=wrap;html=1;container=0;dropTarget=0;collapsible=0;recursiveResize=0;outlineConnect=0;portConstraint=eastwest;newEdgeStyle={&quot;edgeStyle&quot;:&quot;elbowEdgeStyle&quot;,&quot;elbow&quot;:&quot;vertical&quot;,&quot;curved&quot;:0,&quot;rounded&quot;:0};" parent="1" vertex="1">
          <mxGeometry x="425" y="40" width="100" height="300" as="geometry" />
        </mxCell>
        <mxCell id="aM9ryv3xv72pqoxQDRHE-6" value="" style="html=1;points=[];perimeter=orthogonalPerimeter;outlineConnect=0;targetShapes=umlLifeline;portConstraint=eastwest;newEdgeStyle={&quot;edgeStyle&quot;:&quot;elbowEdgeStyle&quot;,&quot;elbow&quot;:&quot;vertical&quot;,&quot;curved&quot;:0,&quot;rounded&quot;:0};" parent="aM9ryv3xv72pqoxQDRHE-5" vertex="1">
          <mxGeometry x="45" y="80" width="10" height="170" as="geometry" />
        </mxCell>
        <mxCell id="aM9ryv3xv72pqoxQDRHE-7" value="Press Login Button" style="html=1;verticalAlign=bottom;endArrow=block;edgeStyle=elbowEdgeStyle;elbow=vertical;curved=0;rounded=0;" parent="1" source="aM9ryv3xv72pqoxQDRHE-2" edge="1">
          <mxGeometry relative="1" as="geometry">
            <mxPoint x="330" y="180" as="sourcePoint" />
            <Array as="points" />
            <mxPoint x="470" y="180" as="targetPoint" />
          </mxGeometry>
        </mxCell>
        <mxCell id="aM9ryv3xv72pqoxQDRHE-8" value="Update Login Status" style="html=1;verticalAlign=bottom;endArrow=open;dashed=1;endSize=8;edgeStyle=elbowEdgeStyle;elbow=vertical;curved=0;rounded=0;" parent="1" edge="1">
          <mxGeometry relative="1" as="geometry">
            <mxPoint x="330" y="280" as="targetPoint" />
            <Array as="points">
              <mxPoint x="425" y="280" />
              <mxPoint x="325" y="300" />
            </Array>
            <mxPoint x="475" y="280" as="sourcePoint" />
          </mxGeometry>
        </mxCell>
        <mxCell id="piu_CtA4Y6ym1tC2iEqm-1" value="Patient Database" style="shape=umlLifeline;perimeter=lifelinePerimeter;whiteSpace=wrap;html=1;container=0;dropTarget=0;collapsible=0;recursiveResize=0;outlineConnect=0;portConstraint=eastwest;newEdgeStyle={&quot;edgeStyle&quot;:&quot;elbowEdgeStyle&quot;,&quot;elbow&quot;:&quot;vertical&quot;,&quot;curved&quot;:0,&quot;rounded&quot;:0};" vertex="1" parent="1">
          <mxGeometry x="630" y="40" width="100" height="300" as="geometry" />
        </mxCell>
        <mxCell id="piu_CtA4Y6ym1tC2iEqm-2" value="" style="html=1;points=[];perimeter=orthogonalPerimeter;outlineConnect=0;targetShapes=umlLifeline;portConstraint=eastwest;newEdgeStyle={&quot;edgeStyle&quot;:&quot;elbowEdgeStyle&quot;,&quot;elbow&quot;:&quot;vertical&quot;,&quot;curved&quot;:0,&quot;rounded&quot;:0};" vertex="1" parent="piu_CtA4Y6ym1tC2iEqm-1">
          <mxGeometry x="45" y="70" width="10" height="190" as="geometry" />
        </mxCell>
        <mxCell id="piu_CtA4Y6ym1tC2iEqm-6" value="" style="endArrow=classic;html=1;rounded=0;" edge="1" parent="1" target="piu_CtA4Y6ym1tC2iEqm-1">
          <mxGeometry width="50" height="50" relative="1" as="geometry">
            <mxPoint x="480" y="190" as="sourcePoint" />
            <mxPoint x="609.5" y="189.5" as="targetPoint" />
            <Array as="points">
              <mxPoint x="480" y="189.5" />
            </Array>
          </mxGeometry>
        </mxCell>
        <mxCell id="piu_CtA4Y6ym1tC2iEqm-16" value="&amp;nbsp;Check Credentials in Database" style="edgeLabel;html=1;align=center;verticalAlign=middle;resizable=0;points=[];" vertex="1" connectable="0" parent="piu_CtA4Y6ym1tC2iEqm-6">
          <mxGeometry x="-0.3407" y="1" relative="1" as="geometry">
            <mxPoint x="28" y="-8" as="offset" />
          </mxGeometry>
        </mxCell>
        <mxCell id="piu_CtA4Y6ym1tC2iEqm-7" value="Patient" style="shape=umlLifeline;perimeter=lifelinePerimeter;whiteSpace=wrap;html=1;container=0;dropTarget=0;collapsible=0;recursiveResize=0;outlineConnect=0;portConstraint=eastwest;newEdgeStyle={&quot;edgeStyle&quot;:&quot;elbowEdgeStyle&quot;,&quot;elbow&quot;:&quot;vertical&quot;,&quot;curved&quot;:0,&quot;rounded&quot;:0};" vertex="1" parent="1">
          <mxGeometry x="60" y="40" width="100" height="300" as="geometry" />
        </mxCell>
        <mxCell id="piu_CtA4Y6ym1tC2iEqm-8" value="" style="html=1;points=[];perimeter=orthogonalPerimeter;outlineConnect=0;targetShapes=umlLifeline;portConstraint=eastwest;newEdgeStyle={&quot;edgeStyle&quot;:&quot;elbowEdgeStyle&quot;,&quot;elbow&quot;:&quot;vertical&quot;,&quot;curved&quot;:0,&quot;rounded&quot;:0};" vertex="1" parent="piu_CtA4Y6ym1tC2iEqm-7">
          <mxGeometry x="45" y="70" width="10" height="190" as="geometry" />
        </mxCell>
        <mxCell id="piu_CtA4Y6ym1tC2iEqm-10" value="" style="html=1;points=[];perimeter=orthogonalPerimeter;outlineConnect=0;targetShapes=umlLifeline;portConstraint=eastwest;newEdgeStyle={&quot;edgeStyle&quot;:&quot;elbowEdgeStyle&quot;,&quot;elbow&quot;:&quot;vertical&quot;,&quot;curved&quot;:0,&quot;rounded&quot;:0};" vertex="1" parent="piu_CtA4Y6ym1tC2iEqm-7">
          <mxGeometry x="50" y="90" width="10" height="50" as="geometry" />
        </mxCell>
        <mxCell id="aM9ryv3xv72pqoxQDRHE-3" value="Enter Login Page" style="html=1;verticalAlign=bottom;startArrow=oval;endArrow=block;startSize=8;edgeStyle=elbowEdgeStyle;elbow=vertical;curved=0;rounded=0;" parent="1" target="aM9ryv3xv72pqoxQDRHE-2" edge="1" source="piu_CtA4Y6ym1tC2iEqm-8">
          <mxGeometry relative="1" as="geometry">
            <mxPoint x="100" y="110" as="sourcePoint" />
            <Array as="points">
              <mxPoint x="160" y="110" />
            </Array>
          </mxGeometry>
        </mxCell>
        <mxCell id="piu_CtA4Y6ym1tC2iEqm-11" value="" style="endArrow=classic;html=1;rounded=0;" edge="1" parent="1" source="aM9ryv3xv72pqoxQDRHE-2">
          <mxGeometry width="50" height="50" relative="1" as="geometry">
            <mxPoint x="219.5" y="140" as="sourcePoint" />
            <mxPoint x="120" y="140" as="targetPoint" />
          </mxGeometry>
        </mxCell>
        <mxCell id="piu_CtA4Y6ym1tC2iEqm-12" value="Request Login Credentials" style="edgeLabel;html=1;align=center;verticalAlign=middle;resizable=0;points=[];" vertex="1" connectable="0" parent="piu_CtA4Y6ym1tC2iEqm-11">
          <mxGeometry x="-0.2663" y="-2" relative="1" as="geometry">
            <mxPoint x="-15" y="-8" as="offset" />
          </mxGeometry>
        </mxCell>
        <mxCell id="piu_CtA4Y6ym1tC2iEqm-13" value="" style="endArrow=classic;html=1;rounded=0;" edge="1" parent="1" target="aM9ryv3xv72pqoxQDRHE-1">
          <mxGeometry width="50" height="50" relative="1" as="geometry">
            <mxPoint x="120" y="170" as="sourcePoint" />
            <mxPoint x="289.5" y="170" as="targetPoint" />
          </mxGeometry>
        </mxCell>
        <mxCell id="piu_CtA4Y6ym1tC2iEqm-14" value="User inputs Credentials into input box" style="edgeLabel;html=1;align=center;verticalAlign=middle;resizable=0;points=[];" vertex="1" connectable="0" parent="piu_CtA4Y6ym1tC2iEqm-13">
          <mxGeometry x="0.3333" y="3" relative="1" as="geometry">
            <mxPoint x="-33" y="-7" as="offset" />
          </mxGeometry>
        </mxCell>
        <mxCell id="piu_CtA4Y6ym1tC2iEqm-17" value="Return Boolean Correct Credentials" style="html=1;verticalAlign=bottom;endArrow=open;dashed=1;endSize=8;edgeStyle=elbowEdgeStyle;elbow=vertical;curved=0;rounded=0;" edge="1" parent="1" source="piu_CtA4Y6ym1tC2iEqm-1" target="aM9ryv3xv72pqoxQDRHE-6">
          <mxGeometry relative="1" as="geometry">
            <mxPoint x="490" y="250" as="targetPoint" />
            <Array as="points">
              <mxPoint x="585" y="250" />
              <mxPoint x="485" y="270" />
            </Array>
            <mxPoint x="650" y="250" as="sourcePoint" />
          </mxGeometry>
        </mxCell>
        <mxCell id="piu_CtA4Y6ym1tC2iEqm-18" value="Update page" style="html=1;verticalAlign=bottom;endArrow=open;dashed=1;endSize=8;edgeStyle=elbowEdgeStyle;elbow=vertical;curved=0;rounded=0;" edge="1" parent="1" source="aM9ryv3xv72pqoxQDRHE-1" target="piu_CtA4Y6ym1tC2iEqm-7">
          <mxGeometry relative="1" as="geometry">
            <mxPoint x="140" y="290" as="targetPoint" />
            <Array as="points">
              <mxPoint x="235" y="290" />
              <mxPoint x="135" y="310" />
            </Array>
            <mxPoint x="285" y="290" as="sourcePoint" />
          </mxGeometry>
        </mxCell>
      </root>
    </mxGraphModel>
  </diagram>
</mxfile>
